<svg width="147" height="130" viewBox="0 0 147 130" fill="none" xmlns="http://www.w3.org/2000/svg">
<g filter="url(#filter0_d_601_3)">
<rect x="35" y="15" width="77" height="60" rx="5" fill="url(#paint0_linear_601_3)"/>
</g>
<path d="M63.7778 59H61V57.5789C61.0061 52.0878 65.3553 47.6378 70.7222 47.6316H76.2778C81.6447 47.6378 85.9939 52.0878 86 57.5789V59H83.2222V57.5789C83.2176 53.6568 80.1112 50.4784 76.2778 50.4737H70.7222C66.8888 50.4784 63.7824 53.6568 63.7778 57.5789V59ZM73.5 46.2105C69.6647 46.2105 66.5556 43.0294 66.5556 39.1053C66.5556 35.1811 69.6647 32 73.5 32C77.3353 32 80.4444 35.1811 80.4444 39.1053C80.4399 43.0274 77.3334 46.2058 73.5 46.2105ZM73.5 34.8421C71.1988 34.8421 69.3333 36.7508 69.3333 39.1053C69.3333 41.4597 71.1988 43.3684 73.5 43.3684C75.8012 43.3684 77.6667 41.4597 77.6667 39.1053C77.6667 36.7508 75.8012 34.8421 73.5 34.8421Z" fill="white"/>
<defs>
<filter id="filter0_d_601_3" x="0" y="0" width="147" height="130" filterUnits="userSpaceOnUse" color-interpolation-filters="sRGB">
<feFlood flood-opacity="0" result="BackgroundImageFix"/>
<feColorMatrix in="SourceAlpha" type="matrix" values="0 0 0 0 0 0 0 0 0 0 0 0 0 0 0 0 0 0 127 0" result="hardAlpha"/>
<feOffset dy="20"/>
<feGaussianBlur stdDeviation="17.5"/>
<feColorMatrix type="matrix" values="0 0 0 0 0 0 0 0 0 0 0 0 0 0 0 0 0 0 0.08 0"/>
<feBlend mode="normal" in2="BackgroundImageFix" result="effect1_dropShadow_601_3"/>
<feBlend mode="normal" in="SourceGraphic" in2="effect1_dropShadow_601_3" result="shape"/>
</filter>
<linearGradient id="paint0_linear_601_3" x1="57.3153" y1="15" x2="111.993" y2="25.9777" gradientUnits="userSpaceOnUse">
<stop stop-color="#FF9B05"/>
<stop offset="1" stop-color="#FF8F3F"/>
</linearGradient>
</defs>
</svg>
