<svg width="163" height="163" fill="none" xmlns="http://www.w3.org/2000/svg"><rect y="81.317" width="115" height="115" rx="15" transform="rotate(-45 0 81.317)" fill="url(#paint0_linear_749_9)"/><path d="M104 108l-5.773-5.116-3.254-3.04-3.44-3.212 1.413 4.999H62.504c-3.048-.011-5.512-2.503-5.504-5.568V59.562c-.005-3.063 2.458-5.551 5.504-5.562h35.992c3.046.011 5.509 2.5 5.504 5.562V108zM91.207 83.865a8.497 8.497 0 01-4.848 3.206c.797 1.023 1.759 2.18 1.767 2.191a9.877 9.877 0 008.218-4.104 36.61 36.61 0 00-3.867-15.74 13.305 13.305 0 00-7.514-2.842h-.032l-.376.432a18.058 18.058 0 016.69 3.428 21.934 21.934 0 00-8.086-2.592 22.433 22.433 0 00-5.422.054 2.243 2.243 0 00-.38.04h-.078a20.21 20.21 0 00-6.096 1.705c-.966.446-1.56.77-1.586.781-.025.012 0 0 0-.02a18.961 18.961 0 017.065-3.498l-.282-.324h-.017a13.31 13.31 0 00-7.515 2.842 36.332 36.332 0 00-3.867 15.74 9.708 9.708 0 008.198 4.104s1.012-1.24 1.801-2.243a8.384 8.384 0 01-4.713-3.183c.02.014.3.205.752.455.03.036.068.065.11.085a.785.785 0 00.114.066c.044.02.087.045.127.073.63.35 1.285.654 1.96.91 1.28.51 2.605.9 3.957 1.165a19.49 19.49 0 003.59.341c1.13 0 2.257-.105 3.368-.313a17.737 17.737 0 003.892-1.16 15.56 15.56 0 003.07-1.6zm-5.761-1.214a2.991 2.991 0 01-2.945-1.667 3.022 3.022 0 01.478-3.365 2.983 2.983 0 013.292-.771 3.01 3.01 0 011.909 2.805 2.882 2.882 0 01-2.737 2.998h.003zm-9.804 0a3.004 3.004 0 01-2.734-2.998 3.004 3.004 0 012.734-2.999 2.628 2.628 0 011.888.81 3.06 3.06 0 01.848 2.186 2.879 2.879 0 01-2.74 3.001h.004z" fill="#fff"/><defs><linearGradient id="paint0_linear_749_9" x1="-7.523" y1="-187.016" x2="296.545" y2="-116.769" gradientUnits="userSpaceOnUse"><stop stop-color="#0AA6FE"/><stop offset="1" stop-color="#05FFFF"/></linearGradient></defs></svg>