<svg width="834" height="351" fill="none" xmlns="http://www.w3.org/2000/svg"><rect x="3" y="56" width="826" height="241" rx="5" fill="#fff"/><path d="M19.375 47.375c1.833.75 3.25 1.958 4.25 3.625 1.083 1.583 1.625 3.5 1.625 5.75 0 3-.958 5.458-2.875 7.375C20.458 66.042 18.083 67 15.25 67c-3 0-5.458-.958-7.375-2.875C5.958 62.208 5 59.75 5 56.75c0-1.5.167-2.958.5-4.375.417-1.417 1.167-3.542 2.25-6.375l6.625-17.75h10l-5 19.125zm26.5 0c1.833.75 3.25 1.958 4.25 3.625 1.083 1.583 1.625 3.5 1.625 5.75 0 3-.958 5.458-2.875 7.375C46.958 66.042 44.583 67 41.75 67c-3 0-5.458-.958-7.375-2.875-1.917-1.917-2.875-4.375-2.875-7.375 0-1.5.167-2.958.5-4.375.417-1.417 1.167-3.542 2.25-6.375l6.625-17.75h10l-5 19.125zm768.75 256.25c-1.833-.75-3.25-1.958-4.25-3.625-1.083-1.583-1.625-3.5-1.625-5.75 0-3 .958-5.458 2.875-7.375 1.917-1.917 4.292-2.875 7.125-2.875 3 0 5.458.958 7.375 2.875 1.917 1.917 2.875 4.375 2.875 7.375 0 1.5-.167 2.958-.5 4.375-.417 1.417-1.167 3.542-2.25 6.375l-6.625 17.75h-10l5-19.125zm-26.5 0c-1.833-.75-3.25-1.958-4.25-3.625-1.083-1.583-1.625-3.5-1.625-5.75 0-3 .958-5.458 2.875-7.375 1.917-1.917 4.292-2.875 7.125-2.875 3 0 5.458.958 7.375 2.875 1.917 1.917 2.875 4.375 2.875 7.375 0 1.5-.167 2.958-.5 4.375-.417 1.417-1.167 3.542-2.25 6.375l-6.625 17.75h-10l5-19.125z" fill="#fff"/></svg>