<svg width="163" height="163" fill="none" xmlns="http://www.w3.org/2000/svg"><rect y="81.317" width="115" height="115" rx="15" transform="rotate(-45 0 81.317)" fill="url(#paint0_linear_744_5)"/><path fill-rule="evenodd" clip-rule="evenodd" d="M102.367 58.068c-.599.124-1.101.308-3.649 1.337a2612.451 2612.451 0 00-9.288 3.774c-.237.099-1.655.677-3.15 1.285a47327.43 47327.43 0 00-24.912 10.15c-1.405.572-3.002 1.222-3.55 1.442-1.6.644-2.223.998-2.838 1.613-1.267 1.266-1.31 3.142-.104 4.578.35.415 1.156 1.017 1.728 1.287.23.11 2.687.937 5.46 1.84 2.774.903 5.06 1.662 5.082 1.687.022.024.495 1.49 1.053 3.256 2.802 8.883 2.964 9.358 3.463 10.16.31.5.83 1.004 1.244 1.207.53.26 1.294.381 1.864.296.573-.086 1.1-.274 1.441-.514.144-.101.827-.682 1.516-1.292 3.165-2.798 4.496-3.947 4.565-3.94.04.003 1.313.926 2.827 2.05 7.783 5.782 7.107 5.319 8.167 5.601.586.156 2.043.152 2.646-.007a4.63 4.63 0 002.498-1.624c.697-.893.65-.732 1.715-6l1.193-5.904c.245-1.209 1.798-8.902 2.223-11.016l1.426-7.066 1.56-7.721c.215-1.067.411-2.15.434-2.409.207-2.26-1.329-4.048-3.553-4.134a4.941 4.941 0 00-1.061.064zm.492 4.132a1327.43 1327.43 0 01-1.188 5.925l-5.705 28.23c-.306 1.52-.578 2.878-.603 3.02-.06.331-.196.589-.356.672-.194.1-.547.079-.803-.049-.177-.088-4.975-3.618-9.185-6.758-2.85-2.125-2.955-2.198-3.07-2.11-.061.048-1.588 1.387-3.391 2.977-3.336 2.94-3.79 3.335-3.79 3.296 0-.03 1.448-8.97 1.492-9.21.03-.16.375-.503 1.709-1.703.92-.827 2.151-1.938 2.737-2.467.586-.53 2.782-2.509 4.879-4.398a3335.88 3335.88 0 004.21-3.796c.22-.199 1.1-.993 1.957-1.764 3.037-2.732 3.357-3.022 4.003-3.627.727-.68.844-.847.792-1.126-.079-.425-.399-.521-.996-.299-.174.065-1.002.532-1.842 1.038-.839.505-3.347 2.01-5.572 3.342l-5.275 3.16c-1.188.714-5.787 3.468-10.224 6.125-1.375.823-2.197 1.278-2.256 1.25a659.83 659.83 0 00-5.896-1.929c-3.193-1.035-5.829-1.902-5.857-1.926-.029-.024 2.583-1.117 5.805-2.43 5.468-2.226 10.062-4.097 20.32-8.278 8.388-3.419 9.628-3.923 13.798-5.611 2.335-.946 4.265-1.707 4.289-1.693.024.014.033.077.018.139z" fill="#fff"/><defs><linearGradient id="paint0_linear_744_5" x1="-7.523" y1="-187.016" x2="296.545" y2="-116.769" gradientUnits="userSpaceOnUse"><stop stop-color="#0AA6FE"/><stop offset="1" stop-color="#05FFFF"/></linearGradient></defs></svg>